<svg width="14" height="14" viewBox="0 0 14 14" fill="none" xmlns="http://www.w3.org/2000/svg">
<path d="M6.99825 3.40832C5.01066 3.40832 3.40657 5.01241 3.40657 7C3.40657 8.98759 5.01066 10.5917 6.99825 10.5917C8.98584 10.5917 10.5899 8.98759 10.5899 7C10.5899 5.01241 8.98584 3.40832 6.99825 3.40832ZM6.99825 9.33433C5.71288 9.33433 4.66392 8.28537 4.66392 7C4.66392 5.71463 5.71288 4.66567 6.99825 4.66567C8.28362 4.66567 9.33258 5.71463 9.33258 7C9.33258 8.28537 8.28362 9.33433 6.99825 9.33433ZM10.737 2.42416C10.273 2.42416 9.89821 2.79891 9.89821 3.26297C9.89821 3.72704 10.273 4.10179 10.737 4.10179C11.2011 4.10179 11.5758 3.72879 11.5758 3.26297C11.576 3.15278 11.5544 3.04364 11.5123 2.94181C11.4702 2.83998 11.4084 2.74745 11.3305 2.66953C11.2525 2.59161 11.16 2.52983 11.0582 2.48773C10.9564 2.44562 10.8472 2.42402 10.737 2.42416ZM13.9995 7C13.9995 6.03335 14.0082 5.07545 13.9539 4.11055C13.8997 2.98979 13.644 1.99512 12.8244 1.17556C12.0031 0.35426 11.0102 0.100338 9.88945 0.0460516C8.9228 -0.00823506 7.9649 0.000520879 7 0.000520879C6.03335 0.000520879 5.07545 -0.00823506 4.11055 0.0460516C2.98979 0.100338 1.99512 0.356011 1.17556 1.17556C0.35426 1.99687 0.100338 2.98979 0.0460516 4.11055C-0.00823506 5.0772 0.000520879 6.0351 0.000520879 7C0.000520879 7.9649 -0.00823506 8.92455 0.0460516 9.88945C0.100338 11.0102 0.356011 12.0049 1.17556 12.8244C1.99687 13.6457 2.98979 13.8997 4.11055 13.9539C5.0772 14.0082 6.0351 13.9995 7 13.9995C7.96665 13.9995 8.92455 14.0082 9.88945 13.9539C11.0102 13.8997 12.0049 13.644 12.8244 12.8244C13.6457 12.0031 13.8997 11.0102 13.9539 9.88945C14.01 8.92455 13.9995 7.96665 13.9995 7ZM12.4584 11.1293C12.3306 11.448 12.1765 11.6862 11.9296 11.9313C11.6827 12.1782 11.4463 12.3324 11.1275 12.4602C10.2064 12.8262 8.01919 12.7439 6.99825 12.7439C5.97731 12.7439 3.78833 12.8262 2.86721 12.4619C2.54849 12.3341 2.31033 12.18 2.06517 11.9331C1.81825 11.6862 1.66415 11.4498 1.53631 11.131C1.17206 10.2082 1.25437 8.02094 1.25437 7C1.25437 5.97906 1.17206 3.79008 1.53631 2.86896C1.66415 2.55024 1.81825 2.31208 2.06517 2.06692C2.31208 1.82175 2.54849 1.6659 2.86721 1.53806C3.78833 1.17381 5.97731 1.25612 6.99825 1.25612C8.01919 1.25612 10.2082 1.17381 11.1293 1.53806C11.448 1.6659 11.6862 1.82 11.9313 2.06692C12.1782 2.31383 12.3324 2.55024 12.4602 2.86896C12.8244 3.79008 12.7421 5.97906 12.7421 7C12.7421 8.02094 12.8244 10.2082 12.4584 11.1293Z" fill="white"/>
</svg>
