<svg width="33" height="33" viewBox="0 0 33 33" fill="none" xmlns="http://www.w3.org/2000/svg">
<ellipse cx="16.7866" cy="16.8956" rx="16.2133" ry="16.1046" fill="#DCDCDC"/>
<g clip-path="url(#clip0_34717_10149)">
<path d="M17.9508 15.7398C17.5127 15.3049 16.9187 15.0605 16.2993 15.0605C15.6799 15.0605 15.0858 15.3049 14.6478 15.7398L12.9957 17.3803C12.5576 17.8154 12.3115 18.4056 12.3115 19.021C12.3115 19.6363 12.5576 20.2265 12.9957 20.6617C13.4338 21.0968 14.028 21.3413 14.6475 21.3413C15.267 21.3413 15.8612 21.0968 16.2993 20.6617L17.125 19.8414" stroke="black" stroke-width="1.58333" stroke-linecap="round" stroke-linejoin="round"/>
<path d="M16.2988 17.3807C16.7369 17.8157 17.3309 18.06 17.9503 18.06C18.5697 18.06 19.1638 17.8157 19.6018 17.3807L21.2539 15.7403C21.692 15.3051 21.9381 14.715 21.9381 14.0996C21.9381 13.4842 21.692 12.894 21.2539 12.4589C20.8158 12.0238 20.2216 11.7793 19.6021 11.7793C18.9826 11.7793 18.3884 12.0238 17.9503 12.4589L17.1246 13.2791" stroke="black" stroke-width="1.58333" stroke-linecap="round" stroke-linejoin="round"/>
</g>
<defs>
<clipPath id="clip0_34717_10149">
<rect width="12.8356" height="12.7495" fill="white" transform="translate(10.707 10.1855)"/>
</clipPath>
</defs>
</svg>
