<svg width="17" height="14" viewBox="0 0 17 14" fill="none" xmlns="http://www.w3.org/2000/svg">
<path d="M17 1.66303C16.3748 1.9364 15.6945 2.13314 14.9938 2.20977C15.7213 1.77162 16.2661 1.07942 16.526 0.263026C15.8433 0.674719 15.0954 0.963406 14.3155 1.11628C13.9895 0.763021 13.5952 0.4816 13.1573 0.28955C12.7193 0.0975012 12.247 -0.00105991 11.7699 8.5955e-06C9.8392 8.5955e-06 8.2865 1.5864 8.2865 3.53314C8.2865 3.80651 8.31919 4.07989 8.37231 4.34291C5.48143 4.18965 2.90314 2.78965 1.18904 0.646162C0.876713 1.18693 0.713043 1.80266 0.715058 2.4293C0.715058 3.65533 1.33001 4.7364 2.26776 5.37219C1.71513 5.35013 1.17544 5.19616 0.692585 4.92279V4.96628C0.692585 6.68314 1.8898 8.10592 3.4854 8.43314C3.18581 8.51202 2.87761 8.55238 2.56808 8.55326C2.34131 8.55326 2.12679 8.53048 1.91023 8.49941C2.35152 9.89941 3.63658 10.9163 5.16681 10.9494C3.96959 11.9 2.47002 12.4592 0.841726 12.4592C0.549573 12.4592 0.279894 12.4488 0 12.4157C1.54453 13.4201 3.37712 14 5.35068 14C11.7576 14 15.2634 8.61953 15.2634 3.94941C15.2634 3.79616 15.2634 3.64291 15.2532 3.48965C15.9315 2.9864 16.526 2.36302 17 1.66303Z" fill="white"/>
</svg>
