<svg width="16" height="12" viewBox="0 0 16 12" fill="none" xmlns="http://www.w3.org/2000/svg">
<path d="M8.051 0H8.14C8.962 0.00320313 13.127 0.0352346 14.25 0.357683C14.5895 0.456093 14.8989 0.647911 15.1472 0.913969C15.3955 1.18003 15.574 1.51101 15.665 1.87383C15.766 2.27956 15.837 2.81662 15.885 3.37076L15.895 3.4818L15.917 3.75941L15.925 3.87045C15.99 4.84634 15.998 5.7603 15.999 5.95996V6.04004C15.998 6.24718 15.989 7.22306 15.917 8.23952L15.909 8.35163L15.9 8.46268C15.85 9.07341 15.776 9.67986 15.665 10.1262C15.5743 10.4891 15.3958 10.8203 15.1475 11.0864C14.8991 11.3525 14.5896 11.5442 14.25 11.6423C13.09 11.9754 8.681 11.9989 8.07 12H7.928C7.619 12 6.341 11.9936 5.001 11.9445L4.831 11.9381L4.744 11.9338L4.573 11.9263L4.402 11.9189C3.292 11.8665 2.235 11.7822 1.748 11.6412C1.40849 11.5432 1.09907 11.3517 0.850724 11.0858C0.602384 10.8199 0.423847 10.4889 0.333 10.1262C0.222 9.68093 0.148 9.07341 0.098 8.46268L0.09 8.35056L0.082 8.23952C0.0326476 7.51604 0.00529987 6.79104 0 6.06566L0 5.93434C0.002 5.70478 0.01 4.91147 0.064 4.03595L0.071 3.92597L0.074 3.87045L0.082 3.75941L0.104 3.4818L0.114 3.37076C0.162 2.81662 0.233 2.27849 0.334 1.87383C0.424694 1.51086 0.603162 1.17972 0.851513 0.913621C1.09986 0.647517 1.40937 0.455798 1.749 0.357683C2.236 0.218881 3.293 0.133464 4.403 0.0800782L4.573 0.0726043L4.745 0.0661982L4.831 0.0629951L5.002 0.0555211C5.95371 0.022822 6.90581 0.00466895 7.858 0.00106776H8.051V0ZM6.4 3.42735V8.57158L10.557 6.00053L6.4 3.42735Z" fill="white"/>
</svg>
